<mxfile host="app.diagrams.net" agent="Mozilla/5.0 (X11; Linux x86_64) AppleWebKit/537.36 (KHTML, like Gecko) Chrome/129.0.0.0 Safari/537.36" version="26.0.15">
  <diagram id="C5RBs43oDa-KdzZeNtuy" name="Page-1">
    <mxGraphModel dx="1382" dy="894" grid="1" gridSize="10" guides="1" tooltips="1" connect="1" arrows="1" fold="1" page="1" pageScale="1" pageWidth="827" pageHeight="1169" math="0" shadow="0">
      <root>
        <mxCell id="WIyWlLk6GJQsqaUBKTNV-0" />
        <mxCell id="WIyWlLk6GJQsqaUBKTNV-1" parent="WIyWlLk6GJQsqaUBKTNV-0" />
        <mxCell id="eo1Wrb26QuT_pD8kxQBx-1" value="Processing&amp;nbsp;&lt;br&gt;Category" style="ellipse;whiteSpace=wrap;html=1;" vertex="1" parent="WIyWlLk6GJQsqaUBKTNV-1">
          <mxGeometry x="220" y="110" width="120" height="80" as="geometry" />
        </mxCell>
        <mxCell id="eo1Wrb26QuT_pD8kxQBx-2" value="" style="endArrow=classic;html=1;rounded=0;exitX=0.5;exitY=1;exitDx=0;exitDy=0;" edge="1" parent="WIyWlLk6GJQsqaUBKTNV-1" source="eo1Wrb26QuT_pD8kxQBx-1">
          <mxGeometry width="50" height="50" relative="1" as="geometry">
            <mxPoint x="230" y="370" as="sourcePoint" />
            <mxPoint x="280" y="250" as="targetPoint" />
          </mxGeometry>
        </mxCell>
        <mxCell id="eo1Wrb26QuT_pD8kxQBx-6" value="" style="edgeStyle=orthogonalEdgeStyle;rounded=0;orthogonalLoop=1;jettySize=auto;html=1;" edge="1" parent="WIyWlLk6GJQsqaUBKTNV-1" source="eo1Wrb26QuT_pD8kxQBx-4" target="eo1Wrb26QuT_pD8kxQBx-5">
          <mxGeometry relative="1" as="geometry" />
        </mxCell>
        <mxCell id="eo1Wrb26QuT_pD8kxQBx-4" value="Processing&lt;br&gt;Purpose" style="rounded=1;whiteSpace=wrap;html=1;" vertex="1" parent="WIyWlLk6GJQsqaUBKTNV-1">
          <mxGeometry x="220" y="250" width="120" height="60" as="geometry" />
        </mxCell>
        <mxCell id="eo1Wrb26QuT_pD8kxQBx-8" value="" style="edgeStyle=orthogonalEdgeStyle;rounded=0;orthogonalLoop=1;jettySize=auto;html=1;" edge="1" parent="WIyWlLk6GJQsqaUBKTNV-1" source="eo1Wrb26QuT_pD8kxQBx-5" target="eo1Wrb26QuT_pD8kxQBx-7">
          <mxGeometry relative="1" as="geometry" />
        </mxCell>
        <mxCell id="eo1Wrb26QuT_pD8kxQBx-5" value="Consent&amp;nbsp;&lt;br&gt;Purpose" style="whiteSpace=wrap;html=1;rounded=1;" vertex="1" parent="WIyWlLk6GJQsqaUBKTNV-1">
          <mxGeometry x="220" y="390" width="120" height="60" as="geometry" />
        </mxCell>
        <mxCell id="eo1Wrb26QuT_pD8kxQBx-10" value="" style="edgeStyle=orthogonalEdgeStyle;rounded=0;orthogonalLoop=1;jettySize=auto;html=1;" edge="1" parent="WIyWlLk6GJQsqaUBKTNV-1" source="eo1Wrb26QuT_pD8kxQBx-7" target="eo1Wrb26QuT_pD8kxQBx-9">
          <mxGeometry relative="1" as="geometry" />
        </mxCell>
        <mxCell id="eo1Wrb26QuT_pD8kxQBx-7" value="PII Lable" style="whiteSpace=wrap;html=1;rounded=1;" vertex="1" parent="WIyWlLk6GJQsqaUBKTNV-1">
          <mxGeometry x="220" y="530" width="120" height="60" as="geometry" />
        </mxCell>
        <mxCell id="eo1Wrb26QuT_pD8kxQBx-12" value="" style="edgeStyle=orthogonalEdgeStyle;rounded=0;orthogonalLoop=1;jettySize=auto;html=1;" edge="1" parent="WIyWlLk6GJQsqaUBKTNV-1" source="eo1Wrb26QuT_pD8kxQBx-9" target="eo1Wrb26QuT_pD8kxQBx-11">
          <mxGeometry relative="1" as="geometry" />
        </mxCell>
        <mxCell id="eo1Wrb26QuT_pD8kxQBx-9" value="Consent Collection&lt;br&gt;Builder" style="whiteSpace=wrap;html=1;rounded=1;" vertex="1" parent="WIyWlLk6GJQsqaUBKTNV-1">
          <mxGeometry x="220" y="670" width="120" height="60" as="geometry" />
        </mxCell>
        <mxCell id="eo1Wrb26QuT_pD8kxQBx-14" value="" style="edgeStyle=orthogonalEdgeStyle;rounded=0;orthogonalLoop=1;jettySize=auto;html=1;" edge="1" parent="WIyWlLk6GJQsqaUBKTNV-1" source="eo1Wrb26QuT_pD8kxQBx-11" target="eo1Wrb26QuT_pD8kxQBx-13">
          <mxGeometry relative="1" as="geometry" />
        </mxCell>
        <mxCell id="eo1Wrb26QuT_pD8kxQBx-11" value="Basic Info" style="ellipse;whiteSpace=wrap;html=1;rounded=1;" vertex="1" parent="WIyWlLk6GJQsqaUBKTNV-1">
          <mxGeometry x="440" y="660" width="80" height="80" as="geometry" />
        </mxCell>
        <mxCell id="eo1Wrb26QuT_pD8kxQBx-16" value="" style="edgeStyle=orthogonalEdgeStyle;rounded=0;orthogonalLoop=1;jettySize=auto;html=1;" edge="1" parent="WIyWlLk6GJQsqaUBKTNV-1" source="eo1Wrb26QuT_pD8kxQBx-13" target="eo1Wrb26QuT_pD8kxQBx-15">
          <mxGeometry relative="1" as="geometry" />
        </mxCell>
        <mxCell id="eo1Wrb26QuT_pD8kxQBx-13" value="Consent&amp;nbsp;&lt;br&gt;Purpose" style="ellipse;whiteSpace=wrap;html=1;rounded=1;" vertex="1" parent="WIyWlLk6GJQsqaUBKTNV-1">
          <mxGeometry x="600" y="660" width="80" height="80" as="geometry" />
        </mxCell>
        <mxCell id="eo1Wrb26QuT_pD8kxQBx-18" value="" style="edgeStyle=orthogonalEdgeStyle;rounded=0;orthogonalLoop=1;jettySize=auto;html=1;" edge="1" parent="WIyWlLk6GJQsqaUBKTNV-1" source="eo1Wrb26QuT_pD8kxQBx-15" target="eo1Wrb26QuT_pD8kxQBx-17">
          <mxGeometry relative="1" as="geometry" />
        </mxCell>
        <mxCell id="eo1Wrb26QuT_pD8kxQBx-22" value="" style="edgeStyle=orthogonalEdgeStyle;rounded=0;orthogonalLoop=1;jettySize=auto;html=1;" edge="1" parent="WIyWlLk6GJQsqaUBKTNV-1" source="eo1Wrb26QuT_pD8kxQBx-15" target="eo1Wrb26QuT_pD8kxQBx-21">
          <mxGeometry relative="1" as="geometry" />
        </mxCell>
        <mxCell id="eo1Wrb26QuT_pD8kxQBx-26" value="" style="edgeStyle=orthogonalEdgeStyle;rounded=0;orthogonalLoop=1;jettySize=auto;html=1;" edge="1" parent="WIyWlLk6GJQsqaUBKTNV-1" source="eo1Wrb26QuT_pD8kxQBx-15" target="eo1Wrb26QuT_pD8kxQBx-25">
          <mxGeometry relative="1" as="geometry" />
        </mxCell>
        <mxCell id="eo1Wrb26QuT_pD8kxQBx-15" value="Sources" style="rhombus;whiteSpace=wrap;html=1;rounded=1;" vertex="1" parent="WIyWlLk6GJQsqaUBKTNV-1">
          <mxGeometry x="600" y="820" width="80" height="80" as="geometry" />
        </mxCell>
        <mxCell id="eo1Wrb26QuT_pD8kxQBx-20" value="" style="edgeStyle=orthogonalEdgeStyle;rounded=0;orthogonalLoop=1;jettySize=auto;html=1;" edge="1" parent="WIyWlLk6GJQsqaUBKTNV-1" source="eo1Wrb26QuT_pD8kxQBx-17" target="eo1Wrb26QuT_pD8kxQBx-19">
          <mxGeometry relative="1" as="geometry" />
        </mxCell>
        <mxCell id="eo1Wrb26QuT_pD8kxQBx-17" value="Database" style="ellipse;whiteSpace=wrap;html=1;rounded=1;" vertex="1" parent="WIyWlLk6GJQsqaUBKTNV-1">
          <mxGeometry x="440" y="820" width="80" height="80" as="geometry" />
        </mxCell>
        <mxCell id="eo1Wrb26QuT_pD8kxQBx-19" value="Connect to&amp;nbsp;&lt;br&gt;Database" style="ellipse;whiteSpace=wrap;html=1;rounded=1;" vertex="1" parent="WIyWlLk6GJQsqaUBKTNV-1">
          <mxGeometry x="440" y="980" width="80" height="80" as="geometry" />
        </mxCell>
        <mxCell id="eo1Wrb26QuT_pD8kxQBx-24" value="" style="edgeStyle=orthogonalEdgeStyle;rounded=0;orthogonalLoop=1;jettySize=auto;html=1;" edge="1" parent="WIyWlLk6GJQsqaUBKTNV-1" source="eo1Wrb26QuT_pD8kxQBx-21" target="eo1Wrb26QuT_pD8kxQBx-23">
          <mxGeometry relative="1" as="geometry" />
        </mxCell>
        <mxCell id="eo1Wrb26QuT_pD8kxQBx-21" value="API" style="ellipse;whiteSpace=wrap;html=1;rounded=1;" vertex="1" parent="WIyWlLk6GJQsqaUBKTNV-1">
          <mxGeometry x="760" y="820" width="80" height="80" as="geometry" />
        </mxCell>
        <mxCell id="eo1Wrb26QuT_pD8kxQBx-23" value="Integrate API" style="ellipse;whiteSpace=wrap;html=1;rounded=1;" vertex="1" parent="WIyWlLk6GJQsqaUBKTNV-1">
          <mxGeometry x="760" y="980" width="80" height="80" as="geometry" />
        </mxCell>
        <mxCell id="eo1Wrb26QuT_pD8kxQBx-28" value="" style="edgeStyle=orthogonalEdgeStyle;rounded=0;orthogonalLoop=1;jettySize=auto;html=1;" edge="1" parent="WIyWlLk6GJQsqaUBKTNV-1" source="eo1Wrb26QuT_pD8kxQBx-25" target="eo1Wrb26QuT_pD8kxQBx-27">
          <mxGeometry relative="1" as="geometry" />
        </mxCell>
        <mxCell id="eo1Wrb26QuT_pD8kxQBx-25" value="Form" style="ellipse;whiteSpace=wrap;html=1;rounded=1;" vertex="1" parent="WIyWlLk6GJQsqaUBKTNV-1">
          <mxGeometry x="600" y="980" width="80" height="80" as="geometry" />
        </mxCell>
        <mxCell id="eo1Wrb26QuT_pD8kxQBx-30" value="" style="edgeStyle=orthogonalEdgeStyle;rounded=0;orthogonalLoop=1;jettySize=auto;html=1;" edge="1" parent="WIyWlLk6GJQsqaUBKTNV-1" source="eo1Wrb26QuT_pD8kxQBx-27" target="eo1Wrb26QuT_pD8kxQBx-29">
          <mxGeometry relative="1" as="geometry" />
        </mxCell>
        <mxCell id="eo1Wrb26QuT_pD8kxQBx-32" value="" style="edgeStyle=orthogonalEdgeStyle;rounded=0;orthogonalLoop=1;jettySize=auto;html=1;" edge="1" parent="WIyWlLk6GJQsqaUBKTNV-1" source="eo1Wrb26QuT_pD8kxQBx-27" target="eo1Wrb26QuT_pD8kxQBx-31">
          <mxGeometry relative="1" as="geometry" />
        </mxCell>
        <mxCell id="eo1Wrb26QuT_pD8kxQBx-27" value="Privacy&amp;nbsp;&lt;br&gt;Note" style="rhombus;whiteSpace=wrap;html=1;rounded=1;" vertex="1" parent="WIyWlLk6GJQsqaUBKTNV-1">
          <mxGeometry x="600" y="1140" width="80" height="80" as="geometry" />
        </mxCell>
        <mxCell id="eo1Wrb26QuT_pD8kxQBx-34" value="" style="edgeStyle=orthogonalEdgeStyle;rounded=0;orthogonalLoop=1;jettySize=auto;html=1;" edge="1" parent="WIyWlLk6GJQsqaUBKTNV-1" source="eo1Wrb26QuT_pD8kxQBx-29" target="eo1Wrb26QuT_pD8kxQBx-33">
          <mxGeometry relative="1" as="geometry" />
        </mxCell>
        <mxCell id="eo1Wrb26QuT_pD8kxQBx-29" value="Create New" style="rounded=1;whiteSpace=wrap;html=1;" vertex="1" parent="WIyWlLk6GJQsqaUBKTNV-1">
          <mxGeometry x="420" y="1150" width="120" height="60" as="geometry" />
        </mxCell>
        <mxCell id="eo1Wrb26QuT_pD8kxQBx-36" value="" style="edgeStyle=orthogonalEdgeStyle;rounded=0;orthogonalLoop=1;jettySize=auto;html=1;" edge="1" parent="WIyWlLk6GJQsqaUBKTNV-1" source="eo1Wrb26QuT_pD8kxQBx-31">
          <mxGeometry relative="1" as="geometry">
            <mxPoint x="640" y="1440" as="targetPoint" />
          </mxGeometry>
        </mxCell>
        <mxCell id="eo1Wrb26QuT_pD8kxQBx-31" value="Add Existing" style="whiteSpace=wrap;html=1;rounded=1;" vertex="1" parent="WIyWlLk6GJQsqaUBKTNV-1">
          <mxGeometry x="580" y="1310" width="120" height="60" as="geometry" />
        </mxCell>
        <mxCell id="eo1Wrb26QuT_pD8kxQBx-33" value="Add New" style="rounded=1;whiteSpace=wrap;html=1;" vertex="1" parent="WIyWlLk6GJQsqaUBKTNV-1">
          <mxGeometry x="420" y="1290" width="120" height="60" as="geometry" />
        </mxCell>
        <mxCell id="eo1Wrb26QuT_pD8kxQBx-37" value="" style="endArrow=classic;html=1;rounded=0;exitX=0.5;exitY=1;exitDx=0;exitDy=0;entryX=0;entryY=0.5;entryDx=0;entryDy=0;" edge="1" parent="WIyWlLk6GJQsqaUBKTNV-1" source="eo1Wrb26QuT_pD8kxQBx-33">
          <mxGeometry width="50" height="50" relative="1" as="geometry">
            <mxPoint x="730" y="1320" as="sourcePoint" />
            <mxPoint x="600" y="1480" as="targetPoint" />
            <Array as="points">
              <mxPoint x="480" y="1480" />
            </Array>
          </mxGeometry>
        </mxCell>
        <mxCell id="eo1Wrb26QuT_pD8kxQBx-41" value="" style="edgeStyle=orthogonalEdgeStyle;rounded=0;orthogonalLoop=1;jettySize=auto;html=1;" edge="1" parent="WIyWlLk6GJQsqaUBKTNV-1" source="eo1Wrb26QuT_pD8kxQBx-39" target="eo1Wrb26QuT_pD8kxQBx-40">
          <mxGeometry relative="1" as="geometry" />
        </mxCell>
        <mxCell id="eo1Wrb26QuT_pD8kxQBx-43" value="" style="edgeStyle=orthogonalEdgeStyle;rounded=0;orthogonalLoop=1;jettySize=auto;html=1;" edge="1" parent="WIyWlLk6GJQsqaUBKTNV-1" source="eo1Wrb26QuT_pD8kxQBx-39" target="eo1Wrb26QuT_pD8kxQBx-42">
          <mxGeometry relative="1" as="geometry" />
        </mxCell>
        <mxCell id="eo1Wrb26QuT_pD8kxQBx-39" value="&lt;font style=&quot;font-size: 11px;&quot;&gt;Preference&lt;br&gt;form&lt;/font&gt;" style="rhombus;whiteSpace=wrap;html=1;rounded=1;" vertex="1" parent="WIyWlLk6GJQsqaUBKTNV-1">
          <mxGeometry x="600" y="1440" width="80" height="80" as="geometry" />
        </mxCell>
        <mxCell id="eo1Wrb26QuT_pD8kxQBx-45" value="" style="edgeStyle=orthogonalEdgeStyle;rounded=0;orthogonalLoop=1;jettySize=auto;html=1;" edge="1" parent="WIyWlLk6GJQsqaUBKTNV-1" source="eo1Wrb26QuT_pD8kxQBx-40" target="eo1Wrb26QuT_pD8kxQBx-44">
          <mxGeometry relative="1" as="geometry" />
        </mxCell>
        <mxCell id="eo1Wrb26QuT_pD8kxQBx-40" value="Yes" style="whiteSpace=wrap;html=1;rounded=1;" vertex="1" parent="WIyWlLk6GJQsqaUBKTNV-1">
          <mxGeometry x="740" y="1450" width="120" height="60" as="geometry" />
        </mxCell>
        <mxCell id="eo1Wrb26QuT_pD8kxQBx-42" value="No" style="whiteSpace=wrap;html=1;rounded=1;" vertex="1" parent="WIyWlLk6GJQsqaUBKTNV-1">
          <mxGeometry x="580" y="1610" width="120" height="60" as="geometry" />
        </mxCell>
        <mxCell id="eo1Wrb26QuT_pD8kxQBx-47" value="" style="edgeStyle=orthogonalEdgeStyle;rounded=0;orthogonalLoop=1;jettySize=auto;html=1;" edge="1" parent="WIyWlLk6GJQsqaUBKTNV-1" source="eo1Wrb26QuT_pD8kxQBx-44" target="eo1Wrb26QuT_pD8kxQBx-46">
          <mxGeometry relative="1" as="geometry" />
        </mxCell>
        <mxCell id="eo1Wrb26QuT_pD8kxQBx-44" value="Create form" style="whiteSpace=wrap;html=1;rounded=1;" vertex="1" parent="WIyWlLk6GJQsqaUBKTNV-1">
          <mxGeometry x="740" y="1590" width="120" height="60" as="geometry" />
        </mxCell>
        <mxCell id="eo1Wrb26QuT_pD8kxQBx-46" value="Add language" style="whiteSpace=wrap;html=1;rounded=1;" vertex="1" parent="WIyWlLk6GJQsqaUBKTNV-1">
          <mxGeometry x="740" y="1730" width="120" height="60" as="geometry" />
        </mxCell>
        <mxCell id="eo1Wrb26QuT_pD8kxQBx-49" value="" style="endArrow=classic;html=1;rounded=0;entryX=0;entryY=0.5;entryDx=0;entryDy=0;exitX=0.5;exitY=1;exitDx=0;exitDy=0;" edge="1" parent="WIyWlLk6GJQsqaUBKTNV-1" source="eo1Wrb26QuT_pD8kxQBx-42" target="eo1Wrb26QuT_pD8kxQBx-46">
          <mxGeometry width="50" height="50" relative="1" as="geometry">
            <mxPoint x="720" y="1590" as="sourcePoint" />
            <mxPoint x="770" y="1540" as="targetPoint" />
            <Array as="points">
              <mxPoint x="640" y="1760" />
            </Array>
          </mxGeometry>
        </mxCell>
        <mxCell id="eo1Wrb26QuT_pD8kxQBx-50" value="Code Snippets" style="ellipse;whiteSpace=wrap;html=1;" vertex="1" parent="WIyWlLk6GJQsqaUBKTNV-1">
          <mxGeometry x="740" y="1870" width="120" height="80" as="geometry" />
        </mxCell>
        <mxCell id="eo1Wrb26QuT_pD8kxQBx-51" value="" style="endArrow=classic;html=1;rounded=0;entryX=0.5;entryY=0;entryDx=0;entryDy=0;" edge="1" parent="WIyWlLk6GJQsqaUBKTNV-1" source="eo1Wrb26QuT_pD8kxQBx-46" target="eo1Wrb26QuT_pD8kxQBx-50">
          <mxGeometry width="50" height="50" relative="1" as="geometry">
            <mxPoint x="850" y="1730" as="sourcePoint" />
            <mxPoint x="900" y="1680" as="targetPoint" />
          </mxGeometry>
        </mxCell>
      </root>
    </mxGraphModel>
  </diagram>
</mxfile>
